<svg width="375" height="218" viewBox="0 0 375 218" fill="none" xmlns="http://www.w3.org/2000/svg">
<rect width="375" height="218" fill="white"/>
<path opacity="0.5" d="M292 99.1458V91.9971C292 91.3221 291.869 90.6537 291.613 90.0301C291.358 89.4065 290.983 88.8399 290.511 88.3626C290.039 87.8853 289.479 87.5067 288.862 87.2484C288.246 86.9901 287.585 86.8572 286.917 86.8572H268.976C267.628 86.8572 266.335 86.3156 265.382 85.3517C264.429 84.3878 263.894 83.0804 263.894 81.7172V74.5685C263.894 73.8936 264.025 73.2252 264.28 72.6016C264.536 71.978 264.91 71.4113 265.382 70.9341C265.854 70.4568 266.415 70.0782 267.031 69.8199C267.648 69.5616 268.309 69.4286 268.976 69.4286H269.543C270.21 69.4286 270.871 69.2957 271.488 69.0374C272.105 68.7791 272.665 68.4004 273.137 67.9232C273.609 67.4459 273.983 66.8793 274.239 66.2557C274.494 65.6321 274.626 64.9637 274.626 64.2887V57.14C274.626 55.7768 274.09 54.4694 273.137 53.5055C272.184 52.5416 270.891 52.0001 269.543 52.0001L117.242 52C115.894 52 114.601 52.5415 113.648 53.5054C112.695 54.4694 112.159 55.7767 112.159 57.1399V64.2886C112.159 64.9636 112.291 65.632 112.546 66.2556C112.802 66.8792 113.176 67.4458 113.648 67.9231C114.12 68.4004 114.68 68.779 115.297 69.0373C115.914 69.2956 116.575 69.4286 117.242 69.4286C118.59 69.4286 119.883 69.9701 120.836 70.934C121.789 71.8979 122.325 73.2053 122.325 74.5685V81.7172C122.325 82.3922 122.194 83.0605 121.938 83.6842C121.683 84.3078 121.308 84.8744 120.836 85.3517C120.364 85.829 119.804 86.2076 119.187 86.4659C118.571 86.7242 117.91 86.8571 117.242 86.8571H97.5862C96.9188 86.8571 96.2578 86.9901 95.6411 87.2484C95.0244 87.5067 94.4641 87.8853 93.9921 88.3626C93.5201 88.8399 93.1457 89.4065 92.8903 90.0301C92.6349 90.6537 92.5034 91.3221 92.5034 91.997V99.1458C92.5034 99.8207 92.6349 100.489 92.8903 101.113C93.1457 101.736 93.5201 102.303 93.9921 102.78C94.4641 103.258 95.0244 103.636 95.6411 103.894C96.2578 104.153 96.9188 104.286 97.5863 104.286H105.299C106.647 104.286 107.94 104.827 108.893 105.791C109.846 106.755 110.382 108.062 110.382 109.426V116.574C110.382 117.938 109.846 119.245 108.893 120.209C107.94 121.173 106.647 121.714 105.299 121.714H105.28C103.932 121.714 102.639 122.256 101.686 123.22C100.733 124.184 100.197 125.491 100.197 126.854V134.003C100.197 134.678 100.329 135.346 100.584 135.97C100.84 136.593 101.214 137.16 101.686 137.637C102.158 138.115 102.718 138.493 103.335 138.752C103.952 139.01 104.613 139.143 105.28 139.143H106.396C107.744 139.143 109.037 139.684 109.99 140.648C110.943 141.612 111.479 142.92 111.479 144.283V151.431C111.479 152.106 111.348 152.775 111.092 153.398C110.837 154.022 110.462 154.589 109.99 155.066C109.518 155.543 108.958 155.922 108.341 156.18C107.725 156.438 107.064 156.571 106.396 156.571H88.0829C87.4154 156.571 86.7544 156.704 86.1377 156.963C85.5211 157.221 84.9607 157.6 84.4887 158.077C84.0168 158.554 83.6424 159.121 83.3869 159.744C83.1315 160.368 83 161.036 83 161.711V168.86C83 169.535 83.1315 170.203 83.3869 170.827C83.6423 171.451 84.0167 172.017 84.4887 172.494C84.9607 172.972 85.5211 173.35 86.1377 173.609C86.7544 173.867 87.4154 174 88.0829 174L272.272 174C273.62 174 274.913 173.458 275.866 172.495C276.819 171.531 277.354 170.223 277.355 168.86V161.711C277.355 161.036 277.223 160.368 276.968 159.744C276.712 159.121 276.338 158.554 275.866 158.077C275.394 157.6 274.833 157.221 274.217 156.963C273.6 156.704 272.939 156.571 272.272 156.571H267.865C266.517 156.571 265.224 156.03 264.27 155.066C263.317 154.102 262.782 152.795 262.782 151.432V144.283C262.782 142.92 263.317 141.612 264.27 140.648C265.224 139.684 266.517 139.143 267.865 139.143H278.256C278.924 139.143 279.584 139.01 280.201 138.752C280.818 138.493 281.378 138.115 281.85 137.637C282.322 137.16 282.697 136.593 282.952 135.97C283.207 135.346 283.339 134.678 283.339 134.003V126.854C283.339 126.179 283.207 125.511 282.952 124.887C282.697 124.264 282.322 123.697 281.85 123.22C281.378 122.742 280.818 122.364 280.201 122.106C279.584 121.847 278.924 121.714 278.256 121.714H275.104C274.436 121.714 273.775 121.581 273.159 121.323C272.542 121.065 271.982 120.686 271.51 120.209C271.038 119.732 270.663 119.165 270.408 118.541C270.152 117.918 270.021 117.249 270.021 116.574V109.426C270.021 108.751 270.152 108.082 270.408 107.459C270.663 106.835 271.038 106.268 271.51 105.791C271.982 105.314 272.542 104.935 273.159 104.677C273.775 104.419 274.436 104.286 275.104 104.286H286.917C287.585 104.286 288.246 104.153 288.862 103.894C289.479 103.636 290.039 103.258 290.511 102.78C290.983 102.303 291.358 101.736 291.613 101.113C291.869 100.489 292 99.8208 292 99.1458Z" fill="#E0E0E0"/>
<path d="M187.669 198.321C170.828 198.036 156.355 192.249 144.528 180.418C132.563 168.44 126.803 153.783 126.633 136.895C127.078 120.385 132.85 106.075 144.587 94.3874C156.576 82.4416 171.183 76.4699 188.085 76.599C204.639 76.7353 218.942 82.7605 230.629 94.5115C242.427 106.372 248.401 120.838 248.355 137.555C248.316 154.233 242.307 168.64 230.493 180.445C218.679 192.249 204.213 198.014 187.669 198.321Z" fill="#E3E3E3"/>
<path d="M203.037 155.84C201.804 154.743 200.854 153.365 200.266 151.823C199.826 150.737 198.518 149.145 198.396 148.057C198.339 147.552 198.322 147.043 198.345 146.536C198.34 146.426 198.369 146.317 198.428 146.224C198.478 146.175 198.537 146.137 198.603 146.113C198.668 146.089 198.738 146.08 198.808 146.085C200.393 146.051 201.082 148.191 201.817 149.303C202.92 150.966 204.049 152.648 205.593 153.929C207.204 155.278 209.344 156.152 211.409 155.769C213.96 155.297 217.234 152.154 218.692 150.082C219.52 148.907 220.45 147.21 220.596 145.749C220.73 144.413 220.085 143.405 221.032 142.122C222.755 139.782 225.945 139.712 228.272 141.017C230.419 142.219 231.734 144.31 232.968 146.372C233.662 147.521 234.981 151.305 236.951 149.978C237.484 149.617 237.776 149.004 238 148.398C238.876 146.022 239.013 143.48 239.288 140.985C239.504 139.018 239.599 136.048 241.581 134.918C243.285 133.945 244.22 135.344 244.446 136.895C245.006 140.754 246.031 144.539 246.394 148.427C246.739 152.225 245.481 155.102 244.127 158.605C239.59 170.352 231.33 180.554 220.886 187.575C211.25 194.063 199.932 197.602 188.316 197.76C176.701 197.918 165.291 194.687 155.482 188.464C144.437 181.545 135.763 172.204 131.05 159.947C126.086 147.005 125.797 132.966 129.833 119.759C130.473 117.669 131.203 115.608 132.024 113.578C132.526 112.361 133.11 111.158 133.709 109.978C134.717 107.996 134.977 105.803 136.978 104.809C139.335 103.638 142.577 104.551 145.012 104.824C149.452 105.323 152.006 100.442 154.353 97.5206C157.306 93.83 162.011 90.1662 166.552 88.7274C167.108 88.5157 167.708 88.4397 168.3 88.5059C168.884 88.6057 169.453 88.9928 169.602 89.5722C169.845 90.4753 169.008 91.2763 168.241 91.8143C165.885 93.4551 162.63 94.8646 161.028 97.3551C160.144 98.7281 160.724 99.6605 162.133 100.067C165.894 101.15 169.984 99.5801 173.597 98.6526C177.587 97.6204 181.728 95.2225 181.1 90.49C180.635 86.9868 179.072 84.4501 181.854 81.261C184.496 78.2326 188.897 78.5588 192.566 78.4565C194.959 78.3908 198.297 79.0578 200.113 80.762C206.608 86.887 197.953 97.9904 192.59 101.438C188.71 103.93 184.243 105.364 180.348 107.886C176.861 110.117 173.74 112.874 171.097 116.059C170.226 117.065 169.542 118.22 169.079 119.467C168.592 120.786 168.049 122.145 166.888 123.026C164.94 124.487 161.882 124.526 161.06 127.238C160.643 128.603 161.06 130.264 160.694 131.705C160.229 133.599 159.168 136.024 157.829 137.455C156.322 139.067 153.934 139.527 152.451 141.209C150.9 142.958 149.795 145.057 149.231 147.327C148.116 151.855 149.559 156.607 152.522 160.161C154.956 163.082 157.99 163.976 161.641 164.1C164.509 164.197 167.104 164.636 169.098 166.858C170.408 168.319 171.328 170.084 172.212 171.822C173.999 175.337 175.768 177.818 175.79 181.952C175.79 183.127 175.732 184.308 175.9 185.469C176.285 188.123 178.512 190.528 180.455 192.237C183.232 194.672 186.682 195.494 190.251 194.396C193.004 193.549 197.247 191.451 198.849 188.931C200.011 187.1 199.558 186.027 201.797 184.975C202.669 184.566 203.562 184.157 204.232 183.478C206.798 180.919 203.134 177.149 204.833 174.164C206.973 170.388 211.07 168.248 213.071 164.258C213.544 163.314 213.918 162.277 213.843 161.222C213.617 157.977 209.656 158.235 207.319 157.814C205.738 157.557 204.258 156.875 203.037 155.84Z" fill="white"/>
<path d="M190.145 140.759C189.196 140.612 188.256 140.406 187.299 140.179C186.172 139.914 185.006 139.678 183.842 139.731C182.718 139.78 181.632 140.089 180.495 140.016C179.153 139.909 177.898 139.308 176.972 138.331C176.464 137.823 176.07 137.211 175.818 136.537C175.346 135.154 175.3 134.181 173.627 133.798C172.824 133.613 171.991 133.66 171.171 133.633C168.936 133.553 166.633 131.089 169.401 129.582C170.677 128.886 171.809 127.676 173.36 127.669C174.29 127.669 175.181 128.017 176.096 128.185C176.955 128.343 177.846 128.343 178.681 128.606C180.454 129.163 181.228 130.751 182.644 131.807C183.504 132.45 184.565 132.883 185.634 132.781C186.23 132.73 186.822 132.518 187.411 132.61C188.743 132.822 189.359 134.402 190.549 135.045C192.085 135.897 194.305 135.444 195.973 135.376C196.307 135.337 196.645 135.372 196.964 135.478C197.533 135.722 197.83 136.372 197.826 136.988C197.811 138.609 196.584 140.152 195.08 140.671C194.354 140.887 193.599 140.982 192.842 140.953C191.94 140.959 191.038 140.894 190.145 140.759Z" fill="white"/>
<path d="M216.118 84.1457C221.757 87.3132 226.881 91.3189 231.316 96.0258C231.645 96.369 232.762 95.9162 232.402 95.5389C227.92 90.7748 222.741 86.719 217.041 83.5104C216.646 83.2913 215.58 83.8414 216.12 84.1384L216.118 84.1457Z" fill="#616161"/>
<path d="M178.423 77.602C189.994 76.0269 201.967 77.4608 212.61 82.3564C213.017 82.5439 214.071 81.9791 213.53 81.7283C202.639 76.7183 190.403 75.226 178.552 76.8376C177.941 76.9203 177.618 77.7115 178.423 77.602Z" fill="#616161"/>
<path d="M234.012 99.059C240.609 107 245.101 116.414 246.856 126.605C248.594 136.698 247.932 147.358 244.68 157.086C238.245 176.318 221.324 191.684 201.59 196.281C191.5 198.615 180.983 198.364 171.016 195.55C161.295 192.816 152.514 187.534 145.345 180.44C138.175 173.346 132.798 164.752 129.903 155.122C126.97 145.334 126.503 134.973 128.545 124.961C132.666 104.717 147.83 87.0962 167.398 80.2506C169.796 79.4198 172.244 78.7449 174.729 78.23C175.459 78.0766 175.262 77.3731 174.539 77.524C153.931 81.8622 136.218 97.5886 129.412 117.522C122.702 137.17 126.393 159.613 139.539 175.746C146.022 183.699 154.357 190.146 163.864 194.056C173.46 197.964 183.88 199.415 194.18 198.277C204.246 197.155 213.962 193.681 222.288 187.879C230.701 182.02 237.849 174.042 242.523 164.903C252.051 146.275 251.004 122.512 239.725 104.882C238.312 102.683 236.762 100.574 235.085 98.5673C234.786 98.2045 233.659 98.6427 234.002 99.0542L234.012 99.059Z" fill="#616161"/>
<path d="M183.417 120.492C191.38 112.529 204.198 107.945 215.172 118.919C226.193 129.94 221.563 142.709 213.6 150.672C205.637 158.635 175.454 128.453 183.417 120.492Z" fill="white"/>
<path d="M183.887 120.575C187.409 117.086 191.747 114.23 196.645 113.164C202.06 111.983 207.52 113.437 211.902 116.76C216.43 120.19 220.087 125.163 220.909 130.879C221.64 135.836 220.138 140.829 217.538 145.033C216.313 147.068 214.83 148.936 213.127 150.591C212.48 151.226 211.628 151.608 210.724 151.67C208.248 151.862 205.702 150.659 203.588 149.505C197.68 146.272 192.5 141.326 188.385 136.036C186.309 133.358 184.352 130.436 183.285 127.196C182.587 125.083 182.168 122.327 183.879 120.575C184.347 120.088 183.2 120.146 182.944 120.409C179.049 124.419 183.577 131.337 186.058 134.828C190.284 140.778 195.91 146.253 202.291 149.853C204.638 151.18 207.374 152.414 210.135 152.307C213.389 152.181 215.32 149.649 217.143 147.215C220.167 143.176 222.268 138.297 222.27 133.192C222.27 127.15 219.137 121.775 214.76 117.782C210.147 113.578 204.158 111.38 197.924 112.344C192.193 113.232 187.022 116.375 182.944 120.409C182.477 120.881 183.629 120.83 183.887 120.575Z" fill="#616161"/>
<path d="M175.52 122.661C173.181 124.998 179.325 134.935 189.241 144.853C199.156 154.771 209.094 160.92 211.433 158.574L215.776 154.211C215.828 154.172 215.876 154.13 215.922 154.085C218.262 151.745 212.117 141.81 202.202 131.892C192.286 121.974 182.349 115.825 180.009 118.172C179.978 118.201 179.949 118.233 179.922 118.267L175.52 122.661Z" fill="#F9F9F9"/>
<path d="M211.305 158.524C213.64 156.189 207.493 146.256 197.575 136.339C187.658 126.421 177.725 120.274 175.39 122.609C173.055 124.944 179.202 134.876 189.12 144.794C199.038 154.712 208.97 160.859 211.305 158.524Z" fill="white"/>
<path d="M200.278 154.968C202.15 156.268 204.093 157.512 206.184 158.43C207.401 158.968 208.796 159.467 210.157 159.319C212.041 159.114 213.322 157.186 214.568 155.944C215.72 154.786 217.144 153.87 216.988 152.079C216.73 149.118 214.651 146.182 213.032 143.802C207.506 135.709 200.22 128.404 192.339 122.607C189.708 120.672 186.781 118.6 183.6 117.687C182.049 117.244 180.457 117.222 179.259 118.418C178.368 119.299 177.487 120.185 176.601 121.071C175.997 121.673 175.14 122.288 174.716 123.046C174.042 124.219 174.643 125.879 175.091 127.016C176.012 129.356 177.414 131.498 178.845 133.553C179.023 133.811 180.16 133.438 179.946 133.129C178.684 131.382 177.579 129.527 176.644 127.586C176.126 126.456 175.542 125.11 175.617 123.837C175.663 123.067 176.033 122.666 176.542 122.159L178.85 119.856C179.376 119.331 179.88 118.727 180.454 118.252C181.029 117.777 181.752 117.96 182.451 118.143C185.253 118.873 187.836 120.631 190.173 122.281C197.318 127.306 203.745 133.645 209.161 140.486C211.301 143.188 213.387 146.051 214.826 149.201C215.479 150.625 216.53 152.899 215.247 154.243C213.906 155.655 212.538 157.227 211.038 158.469C210.154 159.199 208.699 158.559 207.742 158.184C205.471 157.293 203.387 155.937 201.39 154.552C201.096 154.348 200.056 154.815 200.288 154.976L200.278 154.968Z" fill="#616161"/>
<path d="M183.956 140.028C187.044 143.541 190.358 146.849 193.876 149.931C194.19 150.204 195.29 149.751 194.966 149.469C191.453 146.386 188.144 143.078 185.061 139.566C184.791 139.259 183.663 139.682 183.968 140.028H183.956Z" fill="#616161"/>
<path d="M175.911 122.929C177.282 121.66 180.631 123.722 181.846 124.389C185.254 126.278 188.378 128.701 191.34 131.225C198.098 136.995 204.73 143.78 209.207 151.521C209.986 152.87 210.731 154.294 211.13 155.811C211.339 156.609 211.573 157.717 210.947 158.394C210.446 158.936 211.573 159.124 211.921 158.739C213.355 157.186 212.026 154.428 211.276 152.884C209.448 149.121 206.836 145.725 204.155 142.536C200.658 138.389 196.84 134.524 192.735 130.977C189.422 128.109 185.892 125.319 181.985 123.304C180.239 122.4 176.941 120.708 175.127 122.386C174.543 122.924 175.47 123.323 175.906 122.921L175.911 122.929Z" fill="#616161"/>
<path d="M208.441 128.194C209.844 128.194 210.981 127.058 210.981 125.655C210.981 124.253 209.844 123.116 208.441 123.116C207.039 123.116 205.902 124.253 205.902 125.655C205.902 127.058 207.039 128.194 208.441 128.194Z" fill="#EFEFEF"/>
<path d="M206.096 123.859C205.815 124.149 205.602 124.498 205.473 124.881C205.343 125.263 205.3 125.67 205.346 126.071C205.393 126.473 205.528 126.858 205.742 127.201C205.956 127.544 206.243 127.835 206.583 128.053C207.864 128.864 209.697 128.54 210.743 127.491C211.023 127.215 211.239 126.883 211.378 126.517C211.518 126.15 211.576 125.758 211.55 125.367C211.524 124.975 211.415 124.594 211.228 124.249C211.042 123.904 210.784 123.603 210.471 123.367C209.181 122.422 207.306 122.734 206.181 123.778C205.694 124.229 206.848 124.182 207.114 123.939C208.024 123.099 209.273 123.428 209.96 124.397C210.274 124.848 210.421 125.395 210.377 125.944C210.332 126.492 210.099 127.008 209.716 127.403C208.798 128.309 207.43 127.761 206.831 126.773C206.557 126.316 206.442 125.781 206.505 125.252C206.568 124.724 206.806 124.231 207.179 123.851C207.377 123.64 207.012 123.547 206.87 123.537C206.726 123.534 206.583 123.561 206.449 123.617C206.316 123.672 206.196 123.754 206.096 123.859Z" fill="#616161"/>
<path d="M198.903 147.538L184.873 161.561C184.427 162.007 184.176 162.613 184.176 163.244C184.176 163.876 184.427 164.481 184.873 164.928C185.319 165.374 185.925 165.625 186.556 165.625C187.188 165.625 187.793 165.374 188.24 164.928L202.269 150.9C203.197 149.97 202.756 148.911 201.819 147.979C200.889 147.059 199.83 146.611 198.903 147.538Z" fill="white"/>
<path d="M183.189 131.827L169.162 145.856C168.716 146.303 168.465 146.908 168.465 147.54C168.465 148.171 168.716 148.777 169.162 149.223C169.609 149.669 170.214 149.92 170.845 149.92C171.477 149.92 172.082 149.669 172.529 149.223L186.556 135.193C187.486 134.263 187.043 133.207 186.108 132.272C185.178 131.347 184.119 130.887 183.189 131.827Z" fill="white"/>
<path d="M198.982 146.845L184.913 160.916C183.827 162.001 183.017 163.457 184.1 164.913C185.293 166.515 187.552 166.179 188.847 164.942C191.281 162.612 193.628 160.161 196.016 157.773L203.32 150.469C203.821 149.966 202.677 149.883 202.346 150.202L189.103 163.447C188.28 164.27 187.248 165.721 185.889 165.03C184.587 164.368 184.497 162.664 185.402 161.648C185.607 161.417 185.845 161.208 186.064 160.989L193.509 153.544L199.95 147.1C200.452 146.599 199.308 146.516 198.977 146.835L198.982 146.845Z" fill="#616161"/>
<path d="M183.27 131.147L169.199 145.216C168.118 146.297 167.3 147.74 168.383 149.194C169.569 150.788 171.84 150.445 173.128 149.216C175.562 146.886 177.909 144.434 180.295 142.046L187.598 134.743C188.085 134.256 186.948 134.2 186.644 134.5L173.401 147.743C172.578 148.566 171.538 150.024 170.185 149.323C168.885 148.651 168.78 146.942 169.683 145.915C169.888 145.671 170.126 145.472 170.345 145.252L177.79 137.808L184.231 131.366C184.718 130.88 183.581 130.824 183.277 131.123L183.27 131.147Z" fill="#616161"/>
<path d="M216.224 118.077C223.041 111.438 231.374 105.092 234.702 95.8237C236.265 91.4709 236.262 86.0154 232.893 82.4806C230.507 79.978 226.931 79.3158 223.61 79.6469C214.671 80.4941 207.811 87.3446 201.861 93.4526C195.33 100.167 188.026 108.626 178.074 109.642C173.816 110.077 169.605 108.617 167.282 104.865C165.559 102.083 165.035 98.8205 166.048 95.6898C167.949 89.8204 173.237 85.8304 175.99 80.4186C177.288 77.8625 177.841 75.0215 177.027 72.2243C175.842 68.1369 172.198 64.6118 167.942 63.9472C166.173 63.6962 164.37 64.0025 162.784 64.8236C160.836 65.7731 159.193 67.3019 157.145 68.0493C152.746 69.6535 147.483 66.4693 146.225 62.1214C144.708 56.8922 147.466 51.4635 151.02 47.7582C155.139 43.4865 159.5 39.4565 164.084 35.6883C167.555 32.8157 171.779 29.6509 172.828 25.0109C173.239 23.1924 173.283 20.9941 171.869 19.5797C170.71 18.4184 169.008 18.4866 167.558 18.9759C165.975 19.5091 164.588 20.534 163.419 21.7001C163.122 21.9946 164.264 21.8997 164.497 21.6684C165.87 20.3027 168.363 18.3138 170.34 19.6357C172.317 20.9576 172.078 23.8667 171.496 25.8629C170.102 30.6539 165.269 33.7651 161.671 36.8325C157.447 40.433 153.17 44.2186 149.44 48.3376C146.322 51.7678 144.002 56.5149 144.796 61.2621C145.453 65.1864 148.637 68.1247 152.503 68.8526C154.26 69.1853 156.074 69.0166 157.739 68.3657C159.573 67.6354 161.101 66.3938 162.806 65.4444C165.118 64.1517 167.477 64.2077 169.839 65.3762C172.102 66.522 173.944 68.3574 175.097 70.6176C175.774 71.9515 176.154 73.4162 176.211 74.9109C176.268 76.4057 176.001 77.8952 175.428 79.2769C173.205 84.859 168.152 88.7225 165.588 94.1269C164.371 96.6928 163.947 99.5241 164.787 102.275C165.822 105.683 168.283 108.514 171.691 109.654C179.357 112.212 187.707 107.504 193.392 102.733C200.846 96.4737 206.608 88.1382 215.044 83.0648C218.42 81.0345 222.568 79.6786 226.537 80.2823C230.675 80.9128 233.57 84.0386 234.327 88.109C235.301 93.309 232.905 98.504 229.984 102.667C227.228 106.591 223.771 109.97 220.295 113.242C218.571 114.863 216.833 116.468 215.139 118.111C214.842 118.401 215.983 118.308 216.217 118.077H216.224Z" fill="#616161"/>
</svg>
