<svg width="140" height="114" viewBox="0 0 140 114" fill="none" xmlns="http://www.w3.org/2000/svg">
<g clip-path="url(#clip0_778_967)">
<path d="M98.8702 20.3688V113.089H16.125V1.03992H79.5538L98.8702 20.3688Z" fill="#DDDDDD"/>
<path d="M91.725 114H90.1015C89.8489 113.991 89.6096 113.885 89.4339 113.703C89.2583 113.521 89.1602 113.278 89.1602 113.025C89.1602 112.772 89.2583 112.529 89.4339 112.348C89.6096 112.166 89.8489 112.059 90.1015 112.051H90.7515V111.4C90.7471 111.269 90.769 111.139 90.8159 111.017C90.8629 110.895 90.9339 110.783 91.0248 110.689C91.1156 110.595 91.2245 110.52 91.3449 110.469C91.4653 110.418 91.5948 110.392 91.7255 110.392C91.8563 110.392 91.9858 110.418 92.1061 110.469C92.2265 110.52 92.3354 110.595 92.4263 110.689C92.5172 110.783 92.5882 110.895 92.6352 111.017C92.6821 111.139 92.704 111.269 92.6995 111.4V113.025C92.6995 113.283 92.5968 113.531 92.4141 113.714C92.2313 113.897 91.9834 114 91.725 114Z" fill="#B3B3B3"/>
<path d="M83.9863 114H80.9231C80.6705 113.991 80.4312 113.885 80.2556 113.703C80.08 113.521 79.9818 113.278 79.9818 113.025C79.9818 112.772 80.08 112.529 80.2556 112.348C80.4312 112.166 80.6705 112.059 80.9231 112.051H83.9863C84.117 112.046 84.2473 112.068 84.3693 112.115C84.4914 112.162 84.6028 112.233 84.6968 112.324C84.7908 112.415 84.8656 112.524 84.9167 112.644C84.9678 112.765 84.9941 112.894 84.9941 113.025C84.9941 113.156 84.9678 113.286 84.9167 113.406C84.8656 113.527 84.7908 113.636 84.6968 113.727C84.6028 113.818 84.4914 113.889 84.3693 113.936C84.2473 113.983 84.117 114.004 83.9863 114ZM74.8137 114H71.7505C71.6198 114.004 71.4895 113.983 71.3675 113.936C71.2454 113.889 71.134 113.818 71.04 113.727C70.9459 113.636 70.8712 113.527 70.8201 113.406C70.769 113.286 70.7427 113.156 70.7427 113.025C70.7427 112.894 70.769 112.765 70.8201 112.644C70.8712 112.524 70.9459 112.415 71.04 112.324C71.134 112.233 71.2454 112.162 71.3675 112.115C71.4895 112.068 71.6198 112.046 71.7505 112.051H74.8137C74.9444 112.046 75.0747 112.068 75.1967 112.115C75.3188 112.162 75.4302 112.233 75.5242 112.324C75.6182 112.415 75.693 112.524 75.7441 112.644C75.7952 112.765 75.8215 112.894 75.8215 113.025C75.8215 113.156 75.7952 113.286 75.7441 113.406C75.693 113.527 75.6182 113.636 75.5242 113.727C75.4302 113.818 75.3188 113.889 75.1967 113.936C75.0747 113.983 74.9444 114.004 74.8137 114ZM65.6411 114H62.5779C62.4472 114.004 62.3169 113.983 62.1948 113.936C62.0728 113.889 61.9614 113.818 61.8674 113.727C61.7733 113.636 61.6986 113.527 61.6475 113.406C61.5964 113.286 61.5701 113.156 61.5701 113.025C61.5701 112.894 61.5964 112.765 61.6475 112.644C61.6986 112.524 61.7733 112.415 61.8674 112.324C61.9614 112.233 62.0728 112.162 62.1948 112.115C62.3169 112.068 62.4472 112.046 62.5779 112.051H65.6411C65.7718 112.046 65.9021 112.068 66.0241 112.115C66.1462 112.162 66.2576 112.233 66.3516 112.324C66.4456 112.415 66.5204 112.524 66.5715 112.644C66.6226 112.765 66.6489 112.894 66.6489 113.025C66.6489 113.156 66.6226 113.286 66.5715 113.406C66.5204 113.527 66.4456 113.636 66.3516 113.727C66.2576 113.818 66.1462 113.889 66.0241 113.936C65.9021 113.983 65.7718 114.004 65.6411 114ZM56.4685 114H53.4053C53.2746 114.004 53.1443 113.983 53.0222 113.936C52.9002 113.889 52.7888 113.818 52.6948 113.727C52.6007 113.636 52.5259 113.527 52.4749 113.406C52.4238 113.286 52.3975 113.156 52.3975 113.025C52.3975 112.894 52.4238 112.765 52.4749 112.644C52.5259 112.524 52.6007 112.415 52.6948 112.324C52.7888 112.233 52.9002 112.162 53.0222 112.115C53.1443 112.068 53.2746 112.046 53.4053 112.051H56.4685C56.5992 112.046 56.7294 112.068 56.8515 112.115C56.9736 112.162 57.0849 112.233 57.179 112.324C57.273 112.415 57.3478 112.524 57.3989 112.644C57.45 112.765 57.4763 112.894 57.4763 113.025C57.4763 113.156 57.45 113.286 57.3989 113.406C57.3478 113.527 57.273 113.636 57.179 113.727C57.0849 113.818 56.9736 113.889 56.8515 113.936C56.7294 113.983 56.5992 114.004 56.4685 114ZM47.2959 114H44.2327C44.102 114.004 43.9717 113.983 43.8496 113.936C43.7276 113.889 43.6162 113.818 43.5222 113.727C43.4281 113.636 43.3533 113.527 43.3023 113.406C43.2512 113.286 43.2249 113.156 43.2249 113.025C43.2249 112.894 43.2512 112.765 43.3023 112.644C43.3533 112.524 43.4281 112.415 43.5222 112.324C43.6162 112.233 43.7276 112.162 43.8496 112.115C43.9717 112.068 44.102 112.046 44.2327 112.051H47.2959C47.4266 112.046 47.5568 112.068 47.6789 112.115C47.801 112.162 47.9123 112.233 48.0064 112.324C48.1004 112.415 48.1752 112.524 48.2263 112.644C48.2774 112.765 48.3037 112.894 48.3037 113.025C48.3037 113.156 48.2774 113.286 48.2263 113.406C48.1752 113.527 48.1004 113.636 48.0064 113.727C47.9123 113.818 47.801 113.889 47.6789 113.936C47.5568 113.983 47.4266 114.004 47.2959 114ZM38.1233 114H35.0657C34.935 114.004 34.8048 113.983 34.6827 113.936C34.5606 113.889 34.4493 113.818 34.3552 113.727C34.2612 113.636 34.1864 113.527 34.1353 113.406C34.0842 113.286 34.0579 113.156 34.0579 113.025C34.0579 112.894 34.0842 112.765 34.1353 112.644C34.1864 112.524 34.2612 112.415 34.3552 112.324C34.4493 112.233 34.5606 112.162 34.6827 112.115C34.8048 112.068 34.935 112.046 35.0657 112.051H38.121C38.3736 112.059 38.6129 112.166 38.7885 112.348C38.9641 112.529 39.0623 112.772 39.0623 113.025C39.0623 113.278 38.9641 113.521 38.7885 113.703C38.6129 113.885 38.3736 113.991 38.121 114H38.1233ZM28.9506 114H25.8931C25.7624 114.004 25.6322 113.983 25.5101 113.936C25.388 113.889 25.2766 113.818 25.1826 113.727C25.0886 113.636 25.0138 113.527 24.9627 113.406C24.9116 113.286 24.8853 113.156 24.8853 113.025C24.8853 112.894 24.9116 112.765 24.9627 112.644C25.0138 112.524 25.0886 112.415 25.1826 112.324C25.2766 112.233 25.388 112.162 25.5101 112.115C25.6322 112.068 25.7624 112.046 25.8931 112.051H28.9506C29.2032 112.059 29.4426 112.166 29.6182 112.348C29.7938 112.529 29.892 112.772 29.892 113.025C29.892 113.278 29.7938 113.521 29.6182 113.703C29.4426 113.885 29.2032 113.991 28.9506 114ZM19.778 114H16.7148C16.5841 114.004 16.4539 113.983 16.3318 113.936C16.2097 113.889 16.0984 113.818 16.0043 113.727C15.9103 113.636 15.8355 113.527 15.7844 113.406C15.7334 113.286 15.707 113.156 15.707 113.025C15.707 112.894 15.7334 112.765 15.7844 112.644C15.8355 112.524 15.9103 112.415 16.0043 112.324C16.0984 112.233 16.2097 112.162 16.3318 112.115C16.4539 112.068 16.5841 112.046 16.7148 112.051H19.778C20.0306 112.059 20.2699 112.166 20.4456 112.348C20.6212 112.529 20.7193 112.772 20.7193 113.025C20.7193 113.278 20.6212 113.521 20.4456 113.703C20.2699 113.885 20.0306 113.991 19.778 114Z" fill="#B3B3B3"/>
<path d="M10.6014 114H8.97789C8.71962 114 8.47203 113.897 8.28951 113.714C8.10699 113.531 8.00447 113.283 8.00447 113.025V111.4C8.00001 111.269 8.0219 111.139 8.06884 111.017C8.11578 110.895 8.18681 110.783 8.27769 110.689C8.36857 110.595 8.47745 110.52 8.59785 110.469C8.71824 110.418 8.84768 110.392 8.97846 110.392C9.10924 110.392 9.23868 110.418 9.35907 110.469C9.47947 110.52 9.58835 110.595 9.67923 110.689C9.77011 110.783 9.84114 110.895 9.88808 111.017C9.93502 111.139 9.95691 111.269 9.95245 111.4V112.051H10.6014C10.7321 112.046 10.8624 112.068 10.9844 112.115C11.1065 112.162 11.2179 112.233 11.3119 112.324C11.4059 112.415 11.4807 112.524 11.5318 112.644C11.5829 112.765 11.6092 112.894 11.6092 113.025C11.6092 113.156 11.5829 113.286 11.5318 113.406C11.4807 113.527 11.4059 113.636 11.3119 113.727C11.2179 113.818 11.1065 113.889 10.9844 113.936C10.8624 113.983 10.7321 114.004 10.6014 114Z" fill="#B3B3B3"/>
<path d="M8.97789 106.159C8.71962 106.159 8.47203 106.056 8.28951 105.873C8.10699 105.691 8.00447 105.443 8.00447 105.184V102.072C8.00001 101.941 8.0219 101.811 8.06884 101.689C8.11578 101.567 8.18681 101.455 8.27769 101.361C8.36857 101.267 8.47745 101.192 8.59785 101.141C8.71824 101.09 8.84768 101.064 8.97846 101.064C9.10924 101.064 9.23868 101.09 9.35907 101.141C9.47947 101.192 9.58835 101.267 9.67923 101.361C9.77011 101.455 9.84114 101.567 9.88808 101.689C9.93502 101.811 9.95691 101.941 9.95245 102.072V105.181C9.95289 105.309 9.92802 105.436 9.87924 105.555C9.83047 105.674 9.75875 105.782 9.66821 105.873C9.57767 105.964 9.47009 106.036 9.35163 106.085C9.23316 106.134 9.10616 106.159 8.97789 106.159ZM8.97789 96.8327C8.71973 96.8327 8.47213 96.7301 8.28958 96.5474C8.10703 96.3648 8.00447 96.117 8.00447 95.8586V92.7501C8.00001 92.6193 8.0219 92.489 8.06884 92.3668C8.11578 92.2447 8.18681 92.1332 8.27769 92.0391C8.36857 91.945 8.47745 91.8702 8.59785 91.8191C8.71824 91.768 8.84768 91.7416 8.97846 91.7416C9.10924 91.7416 9.23868 91.768 9.35907 91.8191C9.47947 91.8702 9.58835 91.945 9.67923 92.0391C9.77011 92.1332 9.84114 92.2447 9.88808 92.3668C9.93502 92.489 9.95691 92.6193 9.95245 92.7501V95.8586C9.9523 95.9866 9.92697 96.1132 9.87792 96.2313C9.82886 96.3494 9.75703 96.4568 9.66654 96.5471C9.57604 96.6375 9.46865 96.7091 9.35049 96.7579C9.23233 96.8067 9.10572 96.8318 8.97789 96.8316V96.8327ZM8.97789 87.5072C8.71973 87.5072 8.47213 87.4046 8.28958 87.2219C8.10703 87.0392 8.00447 86.7915 8.00447 86.5331V83.4246C8.00001 83.2938 8.0219 83.1634 8.06884 83.0413C8.11578 82.9191 8.18681 82.8077 8.27769 82.7136C8.36857 82.6195 8.47745 82.5446 8.59785 82.4935C8.71824 82.4424 8.84768 82.4161 8.97846 82.4161C9.10924 82.4161 9.23868 82.4424 9.35907 82.4935C9.47947 82.5446 9.58835 82.6195 9.67923 82.7136C9.77011 82.8077 9.84114 82.9191 9.88808 83.0413C9.93502 83.1634 9.95691 83.2938 9.95245 83.4246V86.5331C9.9523 86.661 9.92697 86.7877 9.87792 86.9058C9.82886 87.0239 9.75703 87.1312 9.66654 87.2216C9.57604 87.3119 9.46865 87.3835 9.35049 87.4324C9.23233 87.4812 9.10572 87.5062 8.97789 87.5061V87.5072ZM8.97789 78.1817C8.84997 78.1817 8.72329 78.1564 8.60512 78.1074C8.48694 78.0584 8.37959 77.9865 8.28918 77.896C8.19878 77.8054 8.1271 77.6979 8.07824 77.5795C8.02939 77.4612 8.00432 77.3344 8.00447 77.2064V74.0979C8.01309 73.8452 8.11949 73.6057 8.3012 73.4299C8.48292 73.2542 8.72575 73.1559 8.97846 73.1559C9.23117 73.1559 9.474 73.2542 9.65572 73.4299C9.83743 73.6057 9.94383 73.8452 9.95245 74.0979V77.2087C9.95185 77.4669 9.84887 77.7142 9.66614 77.8964C9.4834 78.0787 9.23586 78.1808 8.97789 78.1805V78.1817ZM8.97789 68.8561C8.71962 68.8558 8.47203 68.7529 8.28951 68.5701C8.10699 68.3872 8.00447 68.1393 8.00447 67.8809V64.7724C8.00001 64.6416 8.0219 64.5112 8.06884 64.3891C8.11578 64.2669 8.18681 64.1555 8.27769 64.0614C8.36857 63.9673 8.47745 63.8924 8.59785 63.8413C8.71824 63.7902 8.84768 63.7639 8.97846 63.7639C9.10924 63.7639 9.23868 63.7902 9.35907 63.8413C9.47947 63.8924 9.58835 63.9673 9.67923 64.0614C9.77011 64.1555 9.84114 64.2669 9.88808 64.3891C9.93502 64.5112 9.95691 64.6416 9.95245 64.7724V67.8809C9.95215 68.1393 9.84934 68.3871 9.66661 68.5698C9.48387 68.7524 9.23616 68.855 8.97789 68.855V68.8561ZM8.97789 59.5306C8.71962 59.5303 8.47203 59.4274 8.28951 59.2445C8.10699 59.0617 8.00447 58.8138 8.00447 58.5553V55.4457C8.00001 55.3149 8.0219 55.1845 8.06884 55.0624C8.11578 54.9402 8.18681 54.8288 8.27769 54.7347C8.36857 54.6406 8.47745 54.5657 8.59785 54.5146C8.71824 54.4635 8.84768 54.4372 8.97846 54.4372C9.10924 54.4372 9.23868 54.4635 9.35907 54.5146C9.47947 54.5657 9.58835 54.6406 9.67923 54.7347C9.77011 54.8288 9.84114 54.9402 9.88808 55.0624C9.93502 55.1845 9.95691 55.3149 9.95245 55.4457V58.5542C9.95245 58.8129 9.84977 59.0609 9.66701 59.2438C9.48424 59.4267 9.23636 59.5295 8.97789 59.5295V59.5306ZM8.97789 50.2051C8.71962 50.2048 8.47203 50.1019 8.28951 49.919C8.10699 49.7361 8.00447 49.4883 8.00447 49.2298V46.1202C8.00001 45.9894 8.0219 45.859 8.06884 45.7369C8.11578 45.6147 8.18681 45.5033 8.27769 45.4091C8.36857 45.315 8.47745 45.2402 8.59785 45.1891C8.71824 45.138 8.84768 45.1116 8.97846 45.1116C9.10924 45.1116 9.23868 45.138 9.35907 45.1891C9.47947 45.2402 9.58835 45.315 9.67923 45.4091C9.77011 45.5033 9.84114 45.6147 9.88808 45.7369C9.93502 45.859 9.95691 45.9894 9.95245 46.1202V49.2287C9.95245 49.4873 9.84977 49.7354 9.66701 49.9183C9.48424 50.1012 9.23636 50.2039 8.97789 50.2039V50.2051ZM8.97789 40.8784C8.71973 40.8784 8.47213 40.7757 8.28958 40.5931C8.10703 40.4104 8.00447 40.1626 8.00447 39.9043V36.7912C8.00001 36.6604 8.0219 36.5301 8.06884 36.4079C8.11578 36.2858 8.18681 36.1743 8.27769 36.0802C8.36857 35.9861 8.47745 35.9113 8.59785 35.8601C8.71824 35.809 8.84768 35.7827 8.97846 35.7827C9.10924 35.7827 9.23868 35.809 9.35907 35.8601C9.47947 35.9113 9.58835 35.9861 9.67923 36.0802C9.77011 36.1743 9.84114 36.2858 9.88808 36.4079C9.93502 36.5301 9.95691 36.6604 9.95245 36.7912V39.8997C9.95304 40.0281 9.92827 40.1554 9.87955 40.2742C9.83083 40.3929 9.75912 40.5009 9.66855 40.5919C9.57798 40.6828 9.47033 40.7549 9.35181 40.8041C9.23328 40.8533 9.1062 40.8785 8.97789 40.8784ZM8.97789 31.5528C8.84997 31.5528 8.72329 31.5276 8.60512 31.4786C8.48694 31.4295 8.37959 31.3577 8.28918 31.2671C8.19878 31.1765 8.1271 31.069 8.07824 30.9507C8.02939 30.8324 8.00432 30.7056 8.00447 30.5776V27.4679C8.01309 27.2152 8.11949 26.9757 8.3012 26.7999C8.48292 26.6242 8.72575 26.526 8.97846 26.526C9.23117 26.526 9.474 26.6242 9.65572 26.7999C9.83743 26.9757 9.94383 27.2152 9.95245 27.4679V30.5765C9.9526 30.7046 9.92749 30.8315 9.87857 30.9498C9.82964 31.0682 9.75787 31.1758 9.66734 31.2664C9.57682 31.357 9.46932 31.4288 9.35102 31.4778C9.23271 31.5267 9.10591 31.5518 8.97789 31.5517V31.5528ZM8.97789 22.2273C8.84997 22.2273 8.72329 22.2021 8.60512 22.153C8.48694 22.104 8.37959 22.0322 8.28918 21.9416C8.19878 21.851 8.1271 21.7435 8.07824 21.6252C8.02939 21.5069 8.00432 21.3801 8.00447 21.252V18.1424C8.00001 18.0116 8.0219 17.8812 8.06884 17.7591C8.11578 17.6369 8.18681 17.5255 8.27769 17.4314C8.36857 17.3373 8.47745 17.2625 8.59785 17.2113C8.71824 17.1602 8.84768 17.1339 8.97846 17.1339C9.10924 17.1339 9.23868 17.1602 9.35907 17.2113C9.47947 17.2625 9.58835 17.3373 9.67923 17.4314C9.77011 17.5255 9.84114 17.6369 9.88808 17.7591C9.93502 17.8812 9.95691 18.0116 9.95245 18.1424V21.2509C9.9526 21.379 9.92749 21.5059 9.87857 21.6243C9.82964 21.7427 9.75787 21.8503 9.66734 21.9408C9.57682 22.0314 9.46932 22.1033 9.35102 22.1522C9.23271 22.2012 9.10591 22.2263 8.97789 22.2262V22.2273ZM8.97789 12.9018C8.71962 12.9015 8.47203 12.7986 8.28951 12.6157C8.10699 12.4328 8.00447 12.185 8.00447 11.9265V8.81686C8.00001 8.68606 8.0219 8.55571 8.06884 8.43356C8.11578 8.31141 8.18681 8.19996 8.27769 8.10585C8.36857 8.01175 8.47745 7.93691 8.59785 7.8858C8.71824 7.83469 8.84768 7.80835 8.97846 7.80835C9.10924 7.80835 9.23868 7.83469 9.35907 7.8858C9.47947 7.93691 9.58835 8.01175 9.67923 8.10585C9.77011 8.19996 9.84114 8.31141 9.88808 8.43356C9.93502 8.55571 9.95691 8.68606 9.95245 8.81686V11.9276C9.95185 12.1859 9.8489 12.4334 9.66621 12.6158C9.48351 12.7982 9.23597 12.9006 8.97789 12.9006V12.9018Z" fill="#B3B3B3"/>
<path d="M8.98123 3.57509C8.72296 3.57479 8.47537 3.47191 8.29285 3.28905C8.11033 3.10619 8.00781 2.8583 8.00781 2.59985V0.975199C8.00766 0.847182 8.03273 0.720391 8.08158 0.602075C8.13044 0.48376 8.20212 0.376244 8.29252 0.285669C8.38293 0.195095 8.49028 0.123238 8.60846 0.0742134C8.72663 0.025189 8.8533 -4.27292e-05 8.98123 -4.26423e-05H10.6047C10.7354 -0.00450726 10.8657 0.0173982 10.9878 0.0643701C11.1098 0.111342 11.2212 0.182418 11.3152 0.273366C11.4093 0.364314 11.4841 0.473272 11.5351 0.59375C11.5862 0.714227 11.6125 0.84376 11.6125 0.974631C11.6125 1.1055 11.5862 1.23503 11.5351 1.35551C11.4841 1.47599 11.4093 1.58495 11.3152 1.6759C11.2212 1.76684 11.1098 1.83792 10.9878 1.8849C10.8657 1.93187 10.7354 1.95377 10.6047 1.9493H9.95578V2.59985C9.95578 2.8585 9.85311 3.10655 9.67035 3.28945C9.48758 3.47234 9.2397 3.57509 8.98123 3.57509Z" fill="#B3B3B3"/>
<path d="M64.7657 1.9493H61.7569C61.6262 1.95377 61.4959 1.93187 61.3739 1.8849C61.2518 1.83792 61.1404 1.76684 61.0464 1.6759C60.9524 1.58495 60.8776 1.47599 60.8265 1.35551C60.7754 1.23503 60.7491 1.1055 60.7491 0.974631C60.7491 0.84376 60.7754 0.714227 60.8265 0.59375C60.8776 0.473272 60.9524 0.364314 61.0464 0.273366C61.1404 0.182418 61.2518 0.111342 61.3739 0.0643701C61.4959 0.0173982 61.6262 -0.00450726 61.7569 -4.26423e-05H64.7657C64.8964 -0.00450726 65.0266 0.0173982 65.1487 0.0643701C65.2708 0.111342 65.3821 0.182418 65.4762 0.273366C65.5702 0.364314 65.645 0.473272 65.6961 0.59375C65.7471 0.714227 65.7735 0.84376 65.7735 0.974631C65.7735 1.1055 65.7471 1.23503 65.6961 1.35551C65.645 1.47599 65.5702 1.58495 65.4762 1.6759C65.3821 1.76684 65.2708 1.83792 65.1487 1.8849C65.0266 1.93187 64.8964 1.95377 64.7657 1.9493ZM55.7394 1.9493H52.7295C52.477 1.94068 52.2376 1.83421 52.062 1.65237C51.8864 1.47053 51.7882 1.22752 51.7882 0.974631C51.7882 0.721741 51.8864 0.47874 52.062 0.296895C52.2376 0.11505 52.477 0.00858459 52.7295 -4.26423e-05H55.7394C55.992 0.00858459 56.2313 0.11505 56.4069 0.296895C56.5825 0.47874 56.6807 0.721741 56.6807 0.974631C56.6807 1.22752 56.5825 1.47053 56.4069 1.65237C56.2313 1.83421 55.992 1.94068 55.7394 1.9493ZM46.712 1.9493H43.7021C43.4496 1.94068 43.2102 1.83421 43.0346 1.65237C42.859 1.47053 42.7608 1.22752 42.7608 0.974631C42.7608 0.721741 42.859 0.47874 43.0346 0.296895C43.2102 0.11505 43.4496 0.00858459 43.7021 -4.26423e-05H46.712C46.9646 0.00858459 47.2039 0.11505 47.3795 0.296895C47.5552 0.47874 47.6533 0.721741 47.6533 0.974631C47.6533 1.22752 47.5552 1.47053 47.3795 1.65237C47.2039 1.83421 46.9646 1.94068 46.712 1.9493ZM37.6846 1.9493H34.6759C34.5452 1.95377 34.4149 1.93187 34.2928 1.8849C34.1708 1.83792 34.0594 1.76684 33.9654 1.6759C33.8713 1.58495 33.7965 1.47599 33.7455 1.35551C33.6944 1.23503 33.6681 1.1055 33.6681 0.974631C33.6681 0.84376 33.6944 0.714227 33.7455 0.59375C33.7965 0.473272 33.8713 0.364314 33.9654 0.273366C34.0594 0.182418 34.1708 0.111342 34.2928 0.0643701C34.4149 0.0173982 34.5452 -0.00450726 34.6759 -4.26423e-05H37.6846C37.8153 -0.00450726 37.9456 0.0173982 38.0677 0.0643701C38.1897 0.111342 38.3011 0.182418 38.3951 0.273366C38.4892 0.364314 38.5639 0.473272 38.615 0.59375C38.6661 0.714227 38.6924 0.84376 38.6924 0.974631C38.6924 1.1055 38.6661 1.23503 38.615 1.35551C38.5639 1.47599 38.4892 1.58495 38.3951 1.6759C38.3011 1.76684 38.1897 1.83792 38.0677 1.8849C37.9456 1.93187 37.8153 1.95377 37.6846 1.9493ZM28.6572 1.9493H25.6485C25.5178 1.95377 25.3875 1.93187 25.2654 1.8849C25.1434 1.83792 25.032 1.76684 24.938 1.6759C24.8439 1.58495 24.7691 1.47599 24.7181 1.35551C24.667 1.23503 24.6407 1.1055 24.6407 0.974631C24.6407 0.84376 24.667 0.714227 24.7181 0.59375C24.7691 0.473272 24.8439 0.364314 24.938 0.273366C25.032 0.182418 25.1434 0.111342 25.2654 0.0643701C25.3875 0.0173982 25.5178 -0.00450726 25.6485 -4.26423e-05H28.6572C28.7879 -0.00450726 28.9182 0.0173982 29.0403 0.0643701C29.1623 0.111342 29.2737 0.182418 29.3677 0.273366C29.4618 0.364314 29.5366 0.473272 29.5876 0.59375C29.6387 0.714227 29.665 0.84376 29.665 0.974631C29.665 1.1055 29.6387 1.23503 29.5876 1.35551C29.5366 1.47599 29.4618 1.58495 29.3677 1.6759C29.2737 1.76684 29.1623 1.83792 29.0403 1.8849C28.9182 1.93187 28.7879 1.95377 28.6572 1.9493ZM19.6298 1.9493H16.6211C16.4904 1.95377 16.3601 1.93187 16.2381 1.8849C16.116 1.83792 16.0046 1.76684 15.9106 1.6759C15.8165 1.58495 15.7418 1.47599 15.6907 1.35551C15.6396 1.23503 15.6133 1.1055 15.6133 0.974631C15.6133 0.84376 15.6396 0.714227 15.6907 0.59375C15.7418 0.473272 15.8165 0.364314 15.9106 0.273366C16.0046 0.182418 16.116 0.111342 16.2381 0.0643701C16.3601 0.0173982 16.4904 -0.00450726 16.6211 -4.26423e-05H19.6264C19.7571 -0.00450726 19.8874 0.0173982 20.0095 0.0643701C20.1315 0.111342 20.2429 0.182418 20.3369 0.273366C20.431 0.364314 20.5058 0.473272 20.5568 0.59375C20.6079 0.714227 20.6342 0.84376 20.6342 0.974631C20.6342 1.1055 20.6079 1.23503 20.5568 1.35551C20.5058 1.47599 20.431 1.58495 20.3369 1.6759C20.2429 1.76684 20.1315 1.83792 20.0095 1.8849C19.8874 1.93187 19.7571 1.95377 19.6264 1.9493H19.6298Z" fill="#B3B3B3"/>
<path d="M73.5568 3.09825C73.4289 3.09859 73.3022 3.07358 73.184 3.02467C73.0658 2.97576 72.9584 2.90392 72.8681 2.81328L72.0048 1.9493H70.7851C70.6544 1.95377 70.5242 1.93187 70.4021 1.88489C70.28 1.83792 70.1687 1.76684 70.0746 1.6759C69.9806 1.58495 69.9058 1.47599 69.8547 1.35551C69.8037 1.23503 69.7773 1.1055 69.7773 0.974631C69.7773 0.84376 69.8037 0.714227 69.8547 0.59375C69.9058 0.473272 69.9806 0.364314 70.0746 0.273366C70.1687 0.182418 70.28 0.111342 70.4021 0.0643701C70.5242 0.0173982 70.6544 -0.00450726 70.7851 -4.26424e-05H72.4086C72.5366 1.62305e-05 72.6633 0.0253156 72.7814 0.0744075C72.8996 0.123499 73.0069 0.195419 73.0973 0.286057L74.2454 1.43387C74.3815 1.57026 74.4742 1.74394 74.5117 1.933C74.5493 2.12206 74.53 2.318 74.4563 2.49609C74.3826 2.67418 74.2578 2.82643 74.0977 2.9336C73.9376 3.04077 73.7494 3.09807 73.5568 3.09825Z" fill="#B3B3B3"/>
<path d="M91.7235 105.705C91.4652 105.705 91.2176 105.602 91.0351 105.419C90.8526 105.236 90.7501 104.989 90.7501 104.73V101.391C90.7587 101.138 90.8651 100.899 91.0468 100.723C91.2285 100.547 91.4714 100.449 91.7241 100.449C91.9768 100.449 92.2196 100.547 92.4013 100.723C92.583 100.899 92.6894 101.138 92.698 101.391V104.729C92.6982 104.857 92.6731 104.984 92.6242 105.102C92.5753 105.221 92.5035 105.329 92.413 105.419C92.3225 105.51 92.215 105.582 92.0967 105.631C91.9784 105.68 91.8516 105.705 91.7235 105.705ZM91.7235 95.6929C91.5956 95.6929 91.4689 95.6676 91.3507 95.6186C91.2325 95.5696 91.1252 95.4977 91.0348 95.4072C90.9444 95.3166 90.8727 95.2091 90.8239 95.0908C90.775 94.9724 90.7499 94.8456 90.7501 94.7176V91.3809C90.7456 91.2501 90.7675 91.1198 90.8145 90.9976C90.8614 90.8755 90.9324 90.764 91.0233 90.6699C91.1142 90.5758 91.2231 90.501 91.3435 90.4499C91.4638 90.3988 91.5933 90.3724 91.7241 90.3724C91.8548 90.3724 91.9843 90.3988 92.1047 90.4499C92.2251 90.501 92.3339 90.5758 92.4248 90.6699C92.5157 90.764 92.5868 90.8755 92.6337 90.9976C92.6806 91.1198 92.7025 91.2501 92.698 91.3809V94.7176C92.6971 94.9756 92.594 95.2227 92.4113 95.4046C92.2286 95.5866 91.9813 95.6886 91.7235 95.6883V95.6929ZM91.7235 85.6805C91.4653 85.6805 91.2177 85.5778 91.0352 85.3952C90.8526 85.2125 90.7501 84.9647 90.7501 84.7064V81.3685C90.7456 81.2377 90.7675 81.1074 90.8145 80.9852C90.8614 80.8631 90.9324 80.7516 91.0233 80.6575C91.1142 80.5634 91.2231 80.4886 91.3435 80.4375C91.4638 80.3863 91.5933 80.36 91.7241 80.36C91.8548 80.36 91.9843 80.3863 92.1047 80.4375C92.2251 80.4886 92.3339 80.5634 92.4248 80.6575C92.5157 80.7516 92.5868 80.8631 92.6337 80.9852C92.6806 81.1074 92.7025 81.2377 92.698 81.3685V84.7018C92.698 84.8298 92.6728 84.9566 92.6238 85.0749C92.5749 85.1931 92.5031 85.3006 92.4125 85.391C92.322 85.4815 92.2146 85.5532 92.0964 85.6021C91.9781 85.651 91.8514 85.6761 91.7235 85.6759V85.6805ZM91.7235 75.6692C91.4652 75.6689 91.2176 75.566 91.0351 75.3832C90.8526 75.2003 90.7501 74.9524 90.7501 74.6939V71.3561C90.7587 71.1034 90.8651 70.8639 91.0468 70.6881C91.2285 70.5124 91.4714 70.4141 91.7241 70.4141C91.9768 70.4141 92.2196 70.5124 92.4013 70.6881C92.583 70.8639 92.6894 71.1034 92.698 71.3561V74.6939C92.6968 74.9518 92.5936 75.1987 92.411 75.3806C92.2284 75.5625 91.9812 75.6647 91.7235 75.6647V75.6692ZM91.7235 65.6568C91.5956 65.6568 91.4689 65.6316 91.3507 65.5825C91.2325 65.5335 91.1252 65.4616 91.0348 65.3711C90.9444 65.2805 90.8727 65.173 90.8239 65.0547C90.775 64.9364 90.7499 64.8096 90.7501 64.6815V61.3448C90.7456 61.214 90.7675 61.0837 90.8145 60.9615C90.8614 60.8394 90.9324 60.7279 91.0233 60.6338C91.1142 60.5397 91.2231 60.4649 91.3435 60.4138C91.4638 60.3627 91.5933 60.3363 91.7241 60.3363C91.8548 60.3363 91.9843 60.3627 92.1047 60.4138C92.2251 60.4649 92.3339 60.5397 92.4248 60.6338C92.5157 60.7279 92.5868 60.8394 92.6337 60.9615C92.6806 61.0837 92.7025 61.214 92.698 61.3448V64.6815C92.6971 64.9395 92.594 65.1866 92.4113 65.3685C92.2286 65.5505 91.9813 65.6525 91.7235 65.6522V65.6568ZM91.7235 55.6455C91.4652 55.6452 91.2176 55.5423 91.0351 55.3595C90.8526 55.1766 90.7501 54.9287 90.7501 54.6703V51.3233C90.7587 51.0706 90.8651 50.8311 91.0468 50.6553C91.2285 50.4796 91.4714 50.3814 91.7241 50.3814C91.9768 50.3814 92.2196 50.4796 92.4013 50.6553C92.583 50.8311 92.6894 51.0706 92.698 51.3233V54.6612C92.6982 54.7894 92.6731 54.9163 92.6242 55.0347C92.5753 55.1532 92.5035 55.2608 92.413 55.3515C92.3225 55.4422 92.215 55.5141 92.0967 55.5632C91.9784 55.6123 91.8516 55.6376 91.7235 55.6376V55.6455ZM91.7235 45.6331C91.4652 45.6328 91.2176 45.5299 91.0351 45.3471C90.8526 45.1642 90.7501 44.9163 90.7501 44.6579V41.3166C90.7456 41.1858 90.7675 41.0555 90.8145 40.9333C90.8614 40.8111 90.9324 40.6997 91.0233 40.6056C91.1142 40.5115 91.2231 40.4367 91.3435 40.3855C91.4638 40.3344 91.5933 40.3081 91.7241 40.3081C91.8548 40.3081 91.9843 40.3344 92.1047 40.3855C92.2251 40.4367 92.3339 40.5115 92.4248 40.6056C92.5157 40.6997 92.5868 40.8111 92.6337 40.9333C92.6806 41.0555 92.7025 41.1858 92.698 41.3166V44.6533C92.698 44.7814 92.6728 44.9082 92.6239 45.0265C92.5749 45.1448 92.5031 45.2524 92.4126 45.3429C92.3221 45.4335 92.2147 45.5053 92.0964 45.5543C91.9782 45.6033 91.8515 45.6286 91.7235 45.6286V45.6331ZM91.7235 35.6207C91.5956 35.6207 91.4689 35.5955 91.3507 35.5464C91.2325 35.4974 91.1252 35.4256 91.0348 35.335C90.9444 35.2444 90.8727 35.1369 90.8239 35.0186C90.775 34.9003 90.7499 34.7735 90.7501 34.6454V31.3042C90.7456 31.1734 90.7675 31.043 90.8145 30.9209C90.8614 30.7987 90.9324 30.6873 91.0233 30.5932C91.1142 30.4991 91.2231 30.4242 91.3435 30.3731C91.4638 30.322 91.5933 30.2957 91.7241 30.2957C91.8548 30.2957 91.9843 30.322 92.1047 30.3731C92.2251 30.4242 92.3339 30.4991 92.4248 30.5932C92.5157 30.6873 92.5868 30.7987 92.6337 30.9209C92.6806 31.043 92.7025 31.1734 92.698 31.3042V34.6409C92.6982 34.769 92.6731 34.8959 92.6242 35.0143C92.5753 35.1327 92.5035 35.2402 92.413 35.3308C92.3224 35.4214 92.2149 35.4933 92.0966 35.5422C91.9783 35.5912 91.8515 35.6163 91.7235 35.6161V35.6207ZM91.7235 25.6083C91.4653 25.6083 91.2177 25.5057 91.0352 25.323C90.8526 25.1403 90.7501 24.8925 90.7501 24.6342V21.2963C90.7587 21.0436 90.8651 20.8041 91.0468 20.6283C91.2285 20.4526 91.4714 20.3544 91.7241 20.3544C91.9768 20.3544 92.2196 20.4526 92.4013 20.6283C92.583 20.8041 92.6894 21.0436 92.698 21.2963V24.6342C92.6968 24.8919 92.5936 25.1387 92.4109 25.3204C92.2283 25.5022 91.9811 25.604 91.7235 25.6037V25.6083ZM87.7062 17.2637C87.578 17.2638 87.4511 17.2386 87.3327 17.1895C87.2144 17.1404 87.1068 17.0684 87.0164 16.9776L84.6588 14.6184C84.4828 14.4342 84.3858 14.1884 84.3886 13.9336C84.3913 13.6788 84.4937 13.4352 84.6737 13.2549C84.8537 13.0746 85.097 12.972 85.3517 12.969C85.6063 12.966 85.852 13.0629 86.0361 13.2389L88.3948 15.5993C88.5309 15.7357 88.6236 15.9094 88.6611 16.0984C88.6987 16.2875 88.6794 16.4834 88.6057 16.6615C88.532 16.8396 88.4072 16.9918 88.2471 17.099C88.087 17.2062 87.8988 17.2635 87.7062 17.2637ZM80.6313 10.1838C80.5034 10.184 80.3767 10.1589 80.2586 10.11C80.1404 10.0611 80.033 9.98936 79.9426 9.89882L77.584 7.53849C77.4932 7.44792 77.4211 7.34033 77.3718 7.22188C77.3226 7.10342 77.2971 6.97642 77.2969 6.84811C77.2967 6.71981 77.3217 6.59273 77.3706 6.47411C77.4195 6.35549 77.4912 6.24767 77.5817 6.1568C77.6722 6.06592 77.7797 5.99379 77.8981 5.94449C78.0165 5.8952 78.1434 5.86972 78.2716 5.86951C78.3998 5.8693 78.5268 5.89435 78.6453 5.94326C78.7639 5.99216 78.8716 6.06396 78.9624 6.15453L81.32 8.51373C81.4561 8.65011 81.5487 8.82381 81.5863 9.01286C81.6238 9.20192 81.6045 9.39786 81.5308 9.57595C81.4571 9.75404 81.3323 9.90629 81.1723 10.0135C81.0122 10.1206 80.8239 10.1779 80.6313 10.1781V10.1838Z" fill="#B3B3B3"/>
<path d="M114.984 84.8211L112.105 87.6632L115.5 91.1057L118.378 88.2636L114.984 84.8211Z" fill="#2D2D2D"/>
<path d="M113.87 42.8812C101.987 30.8365 82.5307 30.7105 70.4934 42.6019C58.4561 54.4933 58.3313 73.9606 70.212 86.0053C77.9132 93.8129 88.8 96.6114 98.7827 94.3771C103.711 93.2778 108.288 90.9693 112.103 87.6594L114.98 84.8211C118.547 80.8079 120.994 75.9247 122.073 70.6637C124.06 60.9532 121.336 50.4481 113.87 42.8812ZM119.704 68.2988C118.886 74.2286 116.184 79.738 111.997 84.0134C107.81 88.2887 102.36 91.1034 96.4524 92.0418C87.8482 93.4042 78.7311 90.7464 72.1589 84.0832C61.3344 73.1125 61.449 55.3754 72.4141 44.5467C83.3793 33.718 101.102 33.8304 111.923 44.801C118.265 51.2269 120.851 59.9769 119.704 68.2988ZM139.337 107.146C139.213 106.969 139.075 106.802 138.923 106.648L128.165 95.7418L121.8 89.2886C121.361 88.8437 120.818 88.5163 120.22 88.3363C119.622 88.1564 118.988 88.1298 118.377 88.2589L115.496 91.0972C115.359 91.7075 115.378 92.3425 115.551 92.9436C115.725 93.5447 116.046 94.0924 116.487 94.5361L122.884 101.022L133.608 111.896C133.76 112.05 133.925 112.191 134.101 112.315C134.818 112.823 135.69 113.062 136.565 112.991C137.44 112.92 138.262 112.543 138.886 111.925C139.511 111.308 139.898 110.491 139.981 109.616C140.063 108.742 139.836 107.866 139.337 107.143V107.146Z" fill="#616161"/>
<path d="M119.967 64.9019C119.854 72.2193 116.876 79.2001 111.672 84.342C107.531 88.4407 102.208 91.134 96.4548 92.0418C95.1958 92.2403 93.9249 92.3541 92.6507 92.3824C88.8503 92.4716 85.0718 91.7813 81.548 90.354C78.0242 88.9267 74.8297 86.7926 72.1613 84.0832C61.3368 73.1126 61.4514 55.3754 72.4165 44.5467C83.3817 33.718 101.104 33.8304 111.925 44.801C114.538 47.4453 116.595 50.5859 117.976 54.0381C119.357 57.4902 120.034 61.184 119.967 64.9019Z" fill="white"/>
<path d="M45.9357 45.3244C45.505 45.3241 45.092 45.1527 44.7876 44.8478C44.4832 44.543 44.3122 44.1296 44.3122 43.6986C44.3122 40.5265 45.9481 37.5963 48.6869 35.8581C49.4417 35.3846 50.0599 34.7222 50.4804 33.9362C50.9008 33.1503 51.1089 32.2681 51.0841 31.377C51.0206 28.6692 48.7674 26.4145 46.0616 26.3464C45.375 26.3294 44.692 26.4501 44.0528 26.7013C43.4135 26.9526 42.831 27.3293 42.3395 27.8093C41.8479 28.2893 41.4574 28.8629 41.1908 29.4963C40.9242 30.1297 40.787 30.81 40.7872 31.4973C40.776 31.9209 40.6 32.3234 40.2966 32.619C39.9933 32.9147 39.5866 33.0801 39.1631 33.0801C38.7397 33.0801 38.333 32.9147 38.0296 32.619C37.7263 32.3234 37.5503 31.9209 37.5391 31.4973C37.5413 30.0377 37.9234 28.6038 38.6479 27.3369C39.3724 26.07 40.4143 25.0139 41.6708 24.2726C42.9273 23.5313 44.3551 23.1304 45.8136 23.1094C47.2721 23.0884 48.7108 23.448 49.9882 24.1527C51.2655 24.8575 52.3373 25.8832 53.098 27.1286C53.8586 28.3741 54.2819 29.7963 54.3261 31.2553C54.3703 32.7143 54.0339 34.1596 53.35 35.4489C52.6662 36.7382 51.6584 37.8269 50.4261 38.6078C48.6313 39.7432 47.5603 41.6505 47.5603 43.7032C47.5591 44.1336 47.3874 44.5459 47.0828 44.8498C46.7783 45.1537 46.3658 45.3244 45.9357 45.3244Z" fill="white"/>
<path d="M45.936 53.0615C45.5054 53.0615 45.0925 52.8904 44.788 52.5857C44.4835 52.281 44.3125 51.8678 44.3125 51.4369V50.4492C44.3237 50.0256 44.4997 49.6231 44.8031 49.3274C45.1064 49.0318 45.5131 48.8663 45.9366 48.8663C46.36 48.8663 46.7667 49.0318 47.0701 49.3274C47.3734 49.6231 47.5495 50.0256 47.5606 50.4492V51.4369C47.5603 51.8679 47.389 52.2811 47.0844 52.5858C46.7797 52.8904 46.3667 53.0615 45.936 53.0615Z" fill="white"/>
<path d="M25.0547 79.3034L40.7111 106.449C42.6466 109.805 40.2266 114 36.3545 114H5.03717C1.16505 114 -1.25489 109.799 0.681742 106.449L16.3381 79.3034C18.2793 75.9474 23.1192 75.9474 25.0547 79.3034Z" fill="#7AA1A8"/>
<path d="M20.7368 100.483C21.1675 100.483 21.5805 100.312 21.8852 100.007C22.1898 99.7024 22.3611 99.2892 22.3614 98.8582V85.7327C22.3502 85.3091 22.1742 84.9066 21.8709 84.611C21.5675 84.3153 21.1608 84.1499 20.7373 84.1499C20.3139 84.1499 19.9072 84.3153 19.6038 84.611C19.3005 84.9066 19.1245 85.3091 19.1133 85.7327V98.8616C19.1142 99.2919 19.2856 99.7042 19.59 100.008C19.8944 100.312 20.3068 100.483 20.7368 100.483Z" fill="white"/>
<path d="M20.7368 108.935C20.9501 108.935 21.1613 108.894 21.3584 108.812C21.5555 108.73 21.7346 108.611 21.8855 108.46C22.0364 108.309 22.1561 108.13 22.2377 107.933C22.3194 107.735 22.3614 107.524 22.3614 107.311V105.881C22.3502 105.458 22.1742 105.055 21.8709 104.76C21.5675 104.464 21.1608 104.298 20.7373 104.298C20.3139 104.298 19.9072 104.464 19.6038 104.76C19.3005 105.055 19.1245 105.458 19.1133 105.881V107.311C19.1133 107.742 19.2843 108.155 19.5888 108.459C19.8933 108.764 20.3062 108.935 20.7368 108.935Z" fill="white"/>
</g>
<defs>
<clipPath id="clip0_778_967">
<rect width="140" height="114" fill="white"/>
</clipPath>
</defs>
</svg>
